<?xml version="1.0" encoding="UTF-8"?>
<svg width="62px" height="63px" viewBox="0 0 62 63" version="1.1" xmlns="http://www.w3.org/2000/svg" xmlns:xlink="http://www.w3.org/1999/xlink">
    <!-- Generator: Sketch 43.2 (39069) - http://www.bohemiancoding.com/sketch -->
    <title>location icon</title>
    <desc>Created with Sketch.</desc>
    <defs></defs>
    <g id="Designs" stroke="none" stroke-width="1" fill="none" fill-rule="evenodd" stroke-linejoin="round">
        <g id="location-icon" transform="translate(1.000000, 1.000000)" stroke-width="2">
            <path d="M59.9774993,30.2930852 C59.9774993,46.8339639 46.629526,60.2424958 30.1617355,60.2424958 C13.693945,60.2424958 0.343883474,46.8339639 0.343883474,30.2930852 C0.343883474,13.7522066 13.693945,0.345762882 30.1617355,0.345762882 C46.629526,0.345762882 59.9774993,13.7522066 59.9774993,30.2930852 Z" id="Stroke-1" stroke="#ED1C24"></path>
            <path d="M39.1542851,23.6512574 C39.1542851,28.4500125 30.4672437,41.6058685 30.4672437,41.6058685 C30.4672437,41.6058685 21.7802023,28.4500125 21.7802023,23.6512574 C21.7802023,18.8545905 25.6684886,14.9621277 30.4672437,14.9621277 C35.2639106,14.9621277 39.1542851,18.8545905 39.1542851,23.6512574 Z" id="Stroke-3" stroke="#F8A800" stroke-linecap="round"></path>
            <path d="M33.9418515,23.6512574 C33.9418515,25.5703418 32.3840311,27.1260739 30.4670349,27.1260739 C28.5458623,27.1260739 26.9922183,25.5703418 26.9922183,23.6512574 C26.9922183,21.732173 28.5458623,20.1743526 30.4670349,20.1743526 C32.3840311,20.1743526 33.9418515,21.732173 33.9418515,23.6512574 Z" id="Stroke-5" stroke="#ED1C24" stroke-linecap="round"></path>
            <path d="M34.5311503,42.404408 C36.3520878,42.7259956 37.5423795,43.2543181 37.5423795,43.8536404 C37.5423795,44.8309326 34.374533,45.6244604 30.4674525,45.6244604 C26.5582839,45.6244604 23.3883491,44.8309326 23.3883491,43.8536404 C23.3883491,43.2543181 24.5849055,42.7239074 26.414196,42.404408" id="Stroke-7" stroke="#F8A800" stroke-linecap="round"></path>
        </g>
    </g>
</svg>